<svg width="32" height="32" viewBox="0 0 32 32" fill="none" xmlns="http://www.w3.org/2000/svg">
<path d="M28.707 19.2927L26 16.5858V12.9998C25.9969 10.5217 25.075 8.13274 23.4126 6.2949C21.7502 4.45706 19.4654 3.3009 17 3.04997V1H15V3.04997C12.5346 3.3009 10.2498 4.45706 8.58737 6.2949C6.92498 8.13274 6.0031 10.5217 6 12.9998V16.5858L3.293 19.2927C3.10545 19.4802 3.00006 19.7345 3 19.9997V22.9997C3 23.2649 3.10536 23.5192 3.29289 23.7068C3.48043 23.8943 3.73478 23.9997 4 23.9997H11V24.7766C10.9782 26.0453 11.4254 27.2773 12.2558 28.2366C13.0862 29.196 14.2414 29.8152 15.5 29.9756C16.1952 30.0445 16.8971 29.9672 17.5606 29.7486C18.2241 29.5299 18.8345 29.1749 19.3525 28.7062C19.8706 28.2375 20.2848 27.6656 20.5685 27.0273C20.8522 26.3889 20.9992 25.6982 21 24.9996V23.9997H28C28.2652 23.9997 28.5196 23.8943 28.7071 23.7068C28.8946 23.5192 29 23.2649 29 22.9997V19.9997C28.9999 19.7345 28.8946 19.4802 28.707 19.2927ZM19 24.9996C19 25.7953 18.6839 26.5583 18.1213 27.1209C17.5587 27.6835 16.7956 27.9996 16 27.9996C15.2044 27.9996 14.4413 27.6835 13.8787 27.1209C13.3161 26.5583 13 25.7953 13 24.9996V23.9997H19V24.9996ZM27 21.9997H5V20.4137L7.707 17.7067C7.89455 17.5193 7.99994 17.265 8 16.9998V12.9998C8 10.8781 8.84285 8.84332 10.3431 7.34305C11.8434 5.84278 13.8783 4.99994 16 4.99994C18.1217 4.99994 20.1566 5.84278 21.6569 7.34305C23.1571 8.84332 24 10.8781 24 12.9998V16.9998C24.0001 17.265 24.1054 17.5193 24.293 17.7067L27 20.4137V21.9997Z" fill="#7366FF"/>
</svg>
