<svg width="30" height="30" viewBox="0 0 30 30" fill="none" xmlns="http://www.w3.org/2000/svg">
<path d="M15 7.5C15.3315 7.5 15.6495 7.3683 15.8839 7.13388C16.1183 6.89946 16.25 6.58152 16.25 6.25V3.75C16.25 3.41848 16.1183 3.10054 15.8839 2.86612C15.6495 2.6317 15.3315 2.5 15 2.5C14.6685 2.5 14.3505 2.6317 14.1161 2.86612C13.8817 3.10054 13.75 3.41848 13.75 3.75V6.25C13.75 6.58152 13.8817 6.89946 14.1161 7.13388C14.3505 7.3683 14.6685 7.5 15 7.5ZM26.25 13.75H23.75C23.4185 13.75 23.1005 13.8817 22.8661 14.1161C22.6317 14.3505 22.5 14.6685 22.5 15C22.5 15.3315 22.6317 15.6495 22.8661 15.8839C23.1005 16.1183 23.4185 16.25 23.75 16.25H26.25C26.5815 16.25 26.8995 16.1183 27.1339 15.8839C27.3683 15.6495 27.5 15.3315 27.5 15C27.5 14.6685 27.3683 14.3505 27.1339 14.1161C26.8995 13.8817 26.5815 13.75 26.25 13.75ZM7.5 15C7.5 14.6685 7.3683 14.3505 7.13388 14.1161C6.89946 13.8817 6.58152 13.75 6.25 13.75H3.75C3.41848 13.75 3.10054 13.8817 2.86612 14.1161C2.6317 14.3505 2.5 14.6685 2.5 15C2.5 15.3315 2.6317 15.6495 2.86612 15.8839C3.10054 16.1183 3.41848 16.25 3.75 16.25H6.25C6.58152 16.25 6.89946 16.1183 7.13388 15.8839C7.3683 15.6495 7.5 15.3315 7.5 15ZM7.775 6.25C7.53133 6.01959 7.20612 5.89542 6.87089 5.9048C6.53567 5.91417 6.21791 6.05633 5.9875 6.3C5.75709 6.54367 5.63292 6.86888 5.6423 7.20411C5.65167 7.53933 5.79383 7.85709 6.0375 8.0875L7.8375 9.825C7.95829 9.94164 8.10135 10.0327 8.25813 10.0929C8.4149 10.153 8.58219 10.1809 8.75 10.175C8.91838 10.1744 9.0849 10.1397 9.23955 10.0731C9.39421 10.0065 9.53382 9.90938 9.65 9.7875C9.88281 9.5533 10.0135 9.23648 10.0135 8.90625C10.0135 8.57602 9.88281 8.2592 9.65 8.025L7.775 6.25ZM21.25 10.175C21.5718 10.1737 21.8808 10.0484 22.1125 9.825L23.9125 8.0875C24.1321 7.85806 24.2561 7.55365 24.2594 7.23609C24.2626 6.91852 24.1449 6.61162 23.9301 6.37771C23.7153 6.1438 23.4195 6.00043 23.1028 5.97671C22.7861 5.95299 22.4723 6.0507 22.225 6.25L20.425 8.025C20.1922 8.2592 20.0615 8.57602 20.0615 8.90625C20.0615 9.23648 20.1922 9.5533 20.425 9.7875C20.6414 10.0159 20.936 10.1543 21.25 10.175ZM15 22.5C14.6685 22.5 14.3505 22.6317 14.1161 22.8661C13.8817 23.1005 13.75 23.4185 13.75 23.75V26.25C13.75 26.5815 13.8817 26.8995 14.1161 27.1339C14.3505 27.3683 14.6685 27.5 15 27.5C15.3315 27.5 15.6495 27.3683 15.8839 27.1339C16.1183 26.8995 16.25 26.5815 16.25 26.25V23.75C16.25 23.4185 16.1183 23.1005 15.8839 22.8661C15.6495 22.6317 15.3315 22.5 15 22.5ZM22.1625 20.175C21.9238 19.9446 21.6034 19.8184 21.2717 19.8243C20.9399 19.8302 20.6242 19.9676 20.3938 20.2063C20.1633 20.4449 20.0372 20.7654 20.0431 21.0971C20.0489 21.4288 20.1863 21.7446 20.425 21.975L22.225 23.75C22.4567 23.9734 22.7657 24.0987 23.0875 24.1C23.255 24.101 23.421 24.0683 23.5756 24.0039C23.7302 23.9394 23.8703 23.8446 23.9875 23.725C24.1047 23.6088 24.1977 23.4705 24.2611 23.3182C24.3246 23.1659 24.3572 23.0025 24.3572 22.8375C24.3572 22.6725 24.3246 22.5091 24.2611 22.3568C24.1977 22.2045 24.1047 22.0662 23.9875 21.95L22.1625 20.175ZM7.8375 20.175L6.0375 21.9125C5.92034 22.0287 5.82735 22.167 5.76389 22.3193C5.70043 22.4716 5.66775 22.635 5.66775 22.8C5.66775 22.965 5.70043 23.1284 5.76389 23.2807C5.82735 23.433 5.92034 23.5713 6.0375 23.6875C6.15474 23.8071 6.29482 23.9019 6.44943 23.9664C6.60404 24.0308 6.77001 24.0635 6.9375 24.0625C7.24564 24.0651 7.5439 23.9538 7.775 23.75L9.575 22.0125C9.81369 21.7821 9.95108 21.4663 9.95695 21.1346C9.96281 20.8029 9.83666 20.4824 9.60625 20.2437C9.37584 20.0051 9.06005 19.8677 8.72835 19.8618C8.39664 19.8559 8.07619 19.9821 7.8375 20.2125V20.175ZM15 10C14.0111 10 13.0444 10.2932 12.2221 10.8427C11.3999 11.3921 10.759 12.173 10.3806 13.0866C10.0022 14.0002 9.90315 15.0055 10.0961 15.9755C10.289 16.9454 10.7652 17.8363 11.4645 18.5355C12.1637 19.2348 13.0546 19.711 14.0245 19.9039C14.9945 20.0969 15.9998 19.9978 16.9134 19.6194C17.827 19.241 18.6079 18.6001 19.1573 17.7779C19.7068 16.9556 20 15.9889 20 15C20 13.6739 19.4732 12.4021 18.5355 11.4645C17.5979 10.5268 16.3261 10 15 10Z" fill="#1769FD"/>
</svg>
