<svg width="28" height="28" viewBox="0 0 28 28" fill="none" xmlns="http://www.w3.org/2000/svg">
<path d="M10.8792 18.9875C10.6653 18.7347 10.5583 18.4477 10.5583 18.1265C10.5583 17.8061 10.6653 17.5389 10.8792 17.325L13.0375 15.1667H4.66667C4.33611 15.1667 4.05922 15.0547 3.836 14.8307C3.612 14.6074 3.5 14.3306 3.5 14C3.5 13.6694 3.612 13.3922 3.836 13.1682C4.05922 12.9449 4.33611 12.8333 4.66667 12.8333H13.0375L10.8792 10.675C10.6458 10.4417 10.5292 10.1648 10.5292 9.84433C10.5292 9.52311 10.6458 9.24583 10.8792 9.0125C11.0931 8.77917 11.3606 8.6625 11.6818 8.6625C12.0023 8.6625 12.2694 8.76944 12.4833 8.98333L16.6833 13.1833C16.8 13.3 16.8828 13.4264 16.9318 13.5625C16.9801 13.6986 17.0042 13.8444 17.0042 14C17.0042 14.1556 16.9801 14.3014 16.9318 14.4375C16.8828 14.5736 16.8 14.7 16.6833 14.8167L12.4833 19.0167C12.25 19.25 11.9778 19.3569 11.6667 19.3375C11.3556 19.3181 11.0931 19.2014 10.8792 18.9875ZM15.1667 24.5C14.8361 24.5 14.5592 24.388 14.336 24.164C14.112 23.9408 14 23.6639 14 23.3333C14 23.0028 14.112 22.7259 14.336 22.5027C14.5592 22.2787 14.8361 22.1667 15.1667 22.1667H22.1667V5.83333H15.1667C14.8361 5.83333 14.5592 5.72133 14.336 5.49733C14.112 5.27411 14 4.99722 14 4.66667C14 4.33611 14.112 4.05883 14.336 3.83483C14.5592 3.61161 14.8361 3.5 15.1667 3.5H22.1667C22.8083 3.5 23.3578 3.72828 23.8152 4.18483C24.2717 4.64217 24.5 5.19167 24.5 5.83333V22.1667C24.5 22.8083 24.2717 23.3578 23.8152 23.8152C23.3578 24.2717 22.8083 24.5 22.1667 24.5H15.1667Z" fill="white"/>
</svg>
