<svg width="26" height="25" viewBox="0 0 26 25" fill="none" xmlns="http://www.w3.org/2000/svg">
<g clip-path="url(#clip0_2172_103)">
<path d="M6.7762 12.5L11.7762 16.6667L18.4429 8.33337M12.6095 24.1667C11.0774 24.1667 9.56036 23.8649 8.1449 23.2786C6.72943 22.6923 5.44331 21.833 4.35996 20.7496C3.27661 19.6663 2.41725 18.3801 1.83094 16.9647C1.24464 15.5492 0.942871 14.0321 0.942871 12.5C0.942871 10.9679 1.24464 9.45086 1.83094 8.0354C2.41725 6.61993 3.27661 5.33381 4.35996 4.25046C5.44331 3.16711 6.72943 2.30775 8.1449 1.72145C9.56036 1.13514 11.0774 0.833374 12.6095 0.833374C15.7037 0.833374 18.6712 2.06254 20.8591 4.25046C23.047 6.43838 24.2762 9.40585 24.2762 12.5C24.2762 15.5942 23.047 18.5617 20.8591 20.7496C18.6712 22.9375 15.7037 24.1667 12.6095 24.1667Z" stroke="#0038FF"/>
</g>
<defs>
<clipPath id="clip0_2172_103">
<rect width="25" height="25" fill="white" transform="translate(0.109619)"/>
</clipPath>
</defs>
</svg>
